PathFileType	4	(X/Y/Z)	pose_F01_0-96.trc
DataRate	CameraRate	NumFrames	NumMarkers	Units	OrigDataRate	OrigDataStartFrame	OrigNumFrames
30	30	11	21	m	30	76	96
Frame#	Time	CHip			RHip			RKnee			RAnkle			RBigToe			RSmallToe			RHeel			LHip			LKnee			LAnkle			LBigToe			LSmallToe			LHeel			Neck			Nose			RShoulder			RElbow			RWrist			LShoulder			LElbow			LWrist			
		X1	Y1	Z1	X2	Y2	Z2	X3	Y3	Z3	X4	Y4	Z4	X5	Y5	Z5	X6	Y6	Z6	X7	Y7	Z7	X8	Y8	Z8	X9	Y9	Z9	X10	Y10	Z10	X11	Y11	Z11	X12	Y12	Z12	X13	Y13	Z13	X14	Y14	Z14	X15	Y15	Z15	X16	Y16	Z16	X17	Y17	Z17	X18	Y18	Z18	X19	Y19	Z19	X20	Y20	Z20	X21	Y21	Z21	
76	2.533333333333333	-0.2949170459114254	1.8942181451992977	-0.675181600996319	-0.3069731671272649	1.8920544616651314	-0.6131636399086601																-1.2259848398902007	1.800663252225397	0.19211387690872928																-0.29428274649721514	2.0438528121381583	-0.696692608508509	-0.2741455683796693	2.105376262254062	-0.6918942749558004	-0.31710665484794687	2.04046199357142	-0.6168444147139203	-0.3290365358142489	1.9621172767552606	-0.5925830386294608	-0.33879104351281436	1.9003648057561768	-0.5167383067029383	-0.2698602081135384	2.0502308193710097	-0.7791207322560687	-0.26235835643290406	1.9805982674409268	-0.8198651448486038	-1.114013235041662	1.8151593916507953	0.019283570292891634
77	2.566666666666667	-0.296093840711576	1.8945201892726378	-0.6616481816892611	-0.30695012109729547	1.891391312564727	-0.6047617719313054																-1.2344838460392553	1.7993023850913341	0.2099211615391537																-0.29360305946575804	2.0443953970719826	-0.6854701421692683	-0.2751783444730268	2.1088678693338085	-0.6868429265348168	-0.3163126557744122	2.041097587754921	-0.6060001151243701	-0.3322489750799286	1.9621126935923519	-0.5767082648796104	-0.345879620377333	1.893104315063343	-0.4958095610552245	-0.269687186586237	2.0500112170218148	-0.7685290959161524	-0.2625474166774317	1.9777843305106584	-0.8193020760050442	-1.0947604661035686	1.802227088287368	-0.006721202022217122
78	2.6	-0.2961537169003731	1.8923555240810643	-0.6612606560969055	-0.30696122914376667	1.8897295018378737	-0.604353598988875																-1.2372112768585697	1.7995767309076487	0.21240584022064085																-0.29296853793162914	2.043548950920047	-0.6742615204581658	-0.2774599765202103	2.1101696104111465	-0.6763609183074256	-0.3153065980270368	2.0393786274091674	-0.5941882995574862	-1.5179523650503106	1.8603935431485474	0.6628057309532303	-0.34922860941478745	1.8874079012027654	-0.4876390268195302	-0.270018374733286	2.049342348364819	-0.7598672692595139	-0.25922177886396697	1.9732397389609304	-0.8069191056011982	-1.1168572608637932	1.7924316308607176	0.030824690834779612
79	2.6333333333333333	-0.29512483465849915	1.8938677663425953	-0.6580847453045755	-0.30993794837731214	1.8908442695390992	-0.5970024970929381																-1.245264902467164	1.7991609533509851	0.2256958462971114																-0.2930673220508351	2.0433058955409993	-0.6740150624628255	-0.27979435583558687	2.112565305529331	-0.6663055510779791	-0.31644452443183263	2.0390602470052124	-0.5888941396685867	-1.5384067362256766	1.8648944586434897	0.7029111434701986	-0.3480233831552055	1.8936941889178045	-0.4851353304800671	-0.26933701677573674	2.047818865383407	-0.7570614419276536	-0.26103319330245633	1.9740995002451587	-0.793331769456541	-1.1020744000723188	1.7896257429526132	0.004723948128909568
80	2.6666666666666665	-0.29655916005272986	1.893577943608377	-0.6529100886517452	-0.3083171046105017	1.890845949304168	-0.5907296602557169																-1.252780170707026	1.800092429887048	0.23949436778074323																-0.29439247216132086	2.041806356373775	-0.6690904467681057	-0.2801428934843119	2.1134485054054224	-0.6587892693854411	-0.31757849099126384	2.0384275373248135	-0.5837738064610959	-0.33108661889831176	1.9619992570911242	-0.5401138698381831	-0.34665559301528864	1.8909162210726065	-0.47294497672081437	-0.2715427723477956	2.0491169664797924	-0.7551979442039034	-0.2626607488188836	1.9722263900141017	-0.7882734828027266	-1.0998113505499874	1.789239822982677	-0.0023094332836175874
81	2.7	-0.2957421200025398	1.8918535379421741	-0.6497580270639063	-0.30747627911097414	1.8895858957091096	-0.5873770477435328																-1.2586511602083417	1.7991753543416287	0.2511083902457044																-0.2964598070566774	2.0414368701014207	-0.6667835616881677	-0.28122468389914185	2.1118639633242564	-0.6532178679516191	-0.31873922118820963	2.0370326782860615	-0.5786141882820367	-1.5553875462521871	1.8647356505891861	0.7457213927564398	-0.34448670889522137	1.8873006120675775	-0.4662580787602117	-0.27158795024875715	2.0489868142697247	-0.7549977045660903	-0.2628895924918914	1.969624529381988	-0.788108554750996	-1.102949312884756	1.7865471808009143	0.005437548521871611
82	2.7333333333333334	-0.2955109224809875	1.8917401876724176	-0.6496729682887058	-0.3103543758215759	1.888081475267216	-0.588170088799095																-1.2564888427170247	1.7965803956026074	0.24860871434807078																-0.29564236700936974	2.0409606864032597	-0.6637874932242704	-0.28139429410049077	2.1105797587142816	-0.6531474454694683	-0.3197728771181675	2.036754006188274	-0.5734598648366712	-1.5553999584124547	1.8639342223176678	0.7507497687845698	-0.34163848828401405	1.882901767840158	-0.46466720721975624	-0.2707359553401854	2.047473149902877	-0.751791892313953	-0.26231615676239567	1.9673514900047868	-0.785199388620087	-1.1288201835801595	1.791526213526371	0.047377276382772324
83	2.7666666666666666	-0.29565045879572455	1.8895285989047739	-0.6491784235376094	-0.3115552791683088	1.885748874092975	-0.582530980333899																-0.28189332616337837	1.8914579817491213	-0.7082382071792966																-0.2956181143777265	2.040930756440668	-0.6637907224408635	-0.28047498856177727	2.110531810474505	-0.6502024122326406	-0.3178089701377849	2.0366972158788927	-0.5754832536370935	-1.5452095625225928	1.8634207458382395	0.7344545394186622	-0.3347265263303941	1.8802755480892173	-0.46735412954389227	-0.2708841744443849	2.046028414587737	-0.751870474202686	-0.2649042703016353	1.9657160694626474	-0.7832853832480942	-1.1506833898544913	1.7945048945654474	0.07864620610740383
84	2.8	-0.2953635885673658	1.8894921178358335	-0.6491728767489834	-0.30915148476242	1.8883163718621276	-0.5848985095428135																-0.28166803103295046	1.8919450899386347	-0.708150067998826																-0.2934301005154817	2.0399798604856354	-0.6655479907852708	-0.28046403527130215	2.1091821624368623	-0.6496677534201392	-0.31572363599588066	2.0367064767171463	-0.5775912086032974	-1.5466680985540984	1.861339948764041	0.7415526240764835	-0.32643439374301375	1.8778208640519922	-0.475425490221583	-0.2706193756789266	2.046329811881152	-0.751517233196613	-0.2665599874408232	1.9656881505316137	-0.7803466241571886	-1.1604894345506673	1.7836147811873937	0.09502272302853262
85	2.8333333333333335	-0.2942788040586575	1.8891594369528413	-0.6502757167643296	-0.3045366015518758	1.886851870328051	-0.5890860040117779																-0.2808426520758301	1.8917533428649573	-0.7107725615986161																-0.29339515817931566	2.0400711964085825	-0.6656339676544185	-0.28046441730085253	2.10776394880502	-0.6492509740353798	-0.3156676968625406	2.0366779420292045	-0.5776149796120543	-1.5407623328052817	1.8638235384372654	0.7297745457120283	-0.3146020448911595	1.8863839918426268	-0.49839357726299005	-0.27160309029333524	2.0453576513655802	-0.7545090688525887	-0.2666580290392307	1.9645657500967302	-0.7803492133379424	-0.264335283924486	1.8850935832082227	-0.7688750817922699
86	2.8666666666666667	-0.2931940195499492	1.8888267560698493	-0.6513785567796759	-0.3046582163417184	1.888057777602835	-0.5892392621430497																-0.2800172731187097	1.89156159579128	-0.7133950551984063																-0.29132644338008523	2.0402553428753776	-0.6677673296236439	-0.2805681482035344	2.1042181275791507	-0.649170565571622	-0.3135262948235632	2.0355853788501945	-0.57935771765196	-1.5451767315980935	1.86147293218681	0.7399626936610448	-0.3142053690935841	1.8811217038579051	-0.5115532963666736	-0.2715821467214392	2.0453804980248833	-0.7546712223268732	-0.2698168939429822	1.966010784599652	-0.7812541165536612	-0.7126891948028746	1.8319871185973482	-0.3339633296451884
